<svg xmlns="http://www.w3.org/2000/svg" width="100" height="100" viewBox="0 0 100 100">
    <g fill="none" fill-rule="evenodd">
        <path fill="#D8D8D8" fill-rule="nonzero" d="M60 10c-27.6 0-50 22.4-50 50s22.4 50 50 50 50-22.4 50-50-22.4-50-50-50zm0 15c8.3 0 15 6.7 15 15s-6.7 15-15 15-15-6.7-15-15 6.7-15 15-15zm0 71c-12.5 0-23.55-6.4-30-16.1.15-9.95 20-15.4 30-15.4 9.95 0 29.85 5.45 30 15.4C83.55 89.6 72.5 96 60 96z" transform="translate(-10 -10)"/>
        <path d="M0 0L120 0 120 120 0 120z" transform="translate(-10 -10)"/>
    </g>
</svg>
