<svg xmlns="http://www.w3.org/2000/svg" width="50" height="50" viewBox="0 0 50 50">
    <g fill="none" fill-rule="evenodd">
        <path d="M0 0H50V50H0z"/>
        <path fill="#01A851" d="M21.305 35.365l11.343-10.92c2.177-2.096 5.604-2.048 7.722.084l.102.105c2.075 2.198 2.027 5.66-.084 7.799l-.104.102-11.343 10.922c-2.177 2.095-5.604 2.047-7.722-.085l-.101-.105-.1-.107c-1.973-2.203-1.893-5.587.183-7.692l.104-.103 11.343-10.92-11.343 10.92zm7.863-5.567l-6.788 6.535c-1.716 1.653-1.781 4.397-.145 6.13 1.606 1.703 4.255 1.797 5.975.236l.094-.088 6.669-6.42-5.805-6.393zM10.55 5h19.75c1.925 0 3.492 1.547 3.55 3.477v13.344c-.282.181-.555.388-.813.62l-.153.143-12.792 12.315c-1.594 1.536-2.208 3.72-1.822 5.754l.03.149h-7.75c-1.925 0-3.492-1.547-3.55-3.477L7 37.215V8.587c0-1.945 1.532-3.527 3.443-3.585L10.55 5h19.75-19.75zm11.057 16.948h-9.653c-.984 0-1.78.805-1.78 1.798 0 .963.749 1.75 1.69 1.796l.09.002h9.653c.984 0 1.78-.805 1.78-1.798 0-.963-.749-1.749-1.69-1.795l-.09-.003zm7.407-5.993h-17.06c-.984 0-1.78.805-1.78 1.798 0 .963.749 1.75 1.69 1.796l.09.002h17.06c.983 0 1.78-.805 1.78-1.798 0-.963-.75-1.749-1.692-1.795l-.088-.003zm0-5.993h-17.06c-.984 0-1.78.805-1.78 1.798 0 .963.749 1.749 1.69 1.796l.09.002h17.06c.983 0 1.78-.805 1.78-1.798 0-.963-.75-1.749-1.692-1.796l-.088-.002z"/>
    </g>
</svg>
