<svg xmlns="http://www.w3.org/2000/svg" width="250" height="70" viewBox="0 0 250 70">
    <g fill="none" fill-rule="evenodd">
        <path fill="#01A851" fill-rule="nonzero" d="M86.8 16.005c1.815.004 3.286 1.494 3.289 3.333l.004 6.716c-.007.228.011.456.055.68.036.44.398.777.832.778.402.044.807.06 1.21.045l2.975.002 2.974-.002c1.37-.026 2.613.813 3.115 2.106.155.379.234.785.234 1.195l.004 5.514-.004 2.757c.003.88-.34 1.725-.955 2.348-.614.623-1.448.971-2.317.968-1.104.008-2.208.013-3.313 0-.588.01-1.136-.3-1.435-.814-.277-.477-.3-1.06-.066-1.554l.058-.113c.247-.507.752-.834 1.31-.848.567-.023 1.135-.013 1.703-.014.238.007.478 0 .716-.02l.237-.027c.384-.017.69-.33.704-.719.027-.187.042-.376.044-.565 0-1.891 0-3.782-.007-5.673-.004-.809-.314-1.12-1.116-1.167-.155-.01-.31-.02-.465-.02H90.17c-.896.027-1.764-.321-2.4-.962-.636-.618-.992-1.476-.981-2.37l-.006-6.76c.02-.275-.02-.552-.118-.81-.119-.268-.349-.468-.628-.548-.3-.079-.612-.11-.923-.095H80.17c-.405-.053-.815.063-1.134.323-.17.154-.278.365-.304.594-.018.18-.027.361-.028.542l.005 3.45c0 1.151-.002 2.302-.015 3.452-.019.585.218 1.15.648 1.542l1.858 1.868 6.59 6.682c.482.487.965.973 1.45 1.458.53.517.836 1.222.859 1.962v9.471c-.016 1.777-1.415 3.223-3.167 3.276-1.396.025-2.8.005-4.2.005L82.73 54h-3.966c-.9.023-1.772-.33-2.41-.975-.594-.603-.936-1.413-.96-2.26v-6.398c0-.276-.01-.551-.026-.827-.043-.728-.316-1.009-1.038-1.06-.295-.021-.59-.03-.886-.03-1.374 0-2.747.004-4.12.001l-2.061-.009c-1.222.018-2.344-.677-2.887-1.786-.27-.527-.398-1.116-.373-1.71.006-2.647.006-5.294 0-7.94-.001-.238.017-.474.054-.708.27-1.527 1.547-2.661 3.076-2.733 1.15-.023 2.302-.017 3.452-.005.84-.005 1.55.631 1.649 1.476.099.846-.444 1.632-1.262 1.827-.101.022-.204.037-.307.043l-.155.002c-.716.009-1.431.01-2.146.014-.062 0-.124.006-.187.012-.225-.012-.444.074-.604.236-.16.161-.244.384-.233.612-.018.204-.032.409-.031.613.008 1.838-.026 3.671.018 5.506 0 .07.005.142.012.212-.012.245.076.484.243.661.167.177.399.277.64.276.286.037.573.055.861.053h6.275c.893-.022 1.756.328 2.388.968.59.597.93 1.398.955 2.238v.18c.006 2.112 0 4.224 0 6.335-.02.378.01.757.09 1.127.063.298.294.531.59.595.318.072.645.103.971.092l5.015-.004c.162 0 .325-.022.489-.038.23.01.452-.077.618-.239.165-.161.258-.384.257-.617.034-.32.05-.644.048-.966v-4.318c0-.72.003-1.44.008-2.159.014-.478-.163-.94-.487-1.284l-.093-.09c-1.465-1.454-2.898-2.935-4.347-4.403l-3.57-3.614-1.792-1.8c-.69-.657-1.09-1.565-1.116-2.52v-.18c.017-3.04 0-6.08.015-9.123.016-1.815 1.472-3.277 3.263-3.277 2.713-.007 5.426-.007 8.14 0zm37.135 32.973c.234 0 .441.043.623.128s.334.204.458.356.218.332.281.542c.064.209.096.438.096.686v.252h-2.63v.08c0 .205.03.397.092.578.061.18.147.338.259.471.11.134.244.239.398.316.155.077.326.116.515.116.218 0 .41-.04.577-.121.167-.08.319-.21.455-.387l.255.197c-.061.09-.132.175-.213.255-.08.081-.174.151-.28.211-.107.06-.228.107-.362.142-.134.034-.284.051-.45.051-.24 0-.462-.045-.664-.136-.202-.09-.376-.217-.523-.38-.146-.162-.26-.355-.342-.578-.082-.223-.123-.468-.123-.735v-.149c0-.287.043-.548.128-.781.085-.234.2-.433.346-.598.145-.164.313-.291.502-.381.19-.09.39-.135.602-.135zm3.61 0c.198 0 .382.031.55.094.17.062.318.15.444.265.126.115.226.255.301.42.075.164.117.348.126.55h-.391c-.01-.152-.042-.287-.098-.407-.055-.12-.129-.222-.221-.307-.092-.085-.199-.15-.32-.195-.122-.045-.252-.068-.39-.068-.212 0-.39.042-.537.125-.146.083-.266.194-.36.335-.092.14-.16.301-.202.483-.042.182-.063.371-.063.57v.144c0 .2.021.392.063.575.042.183.11.344.201.483.092.14.212.25.361.333.149.083.329.125.54.125.13 0 .254-.02.373-.057.12-.038.226-.094.319-.168.093-.073.17-.164.23-.272.06-.109.094-.234.104-.377h.391c-.009.178-.052.341-.13.49-.08.15-.183.279-.31.387-.13.108-.277.193-.445.254-.169.06-.346.091-.532.091-.259 0-.486-.047-.681-.143-.196-.095-.36-.227-.492-.395-.133-.168-.233-.365-.3-.592-.067-.227-.1-.471-.1-.734v-.145c0-.262.033-.506.1-.733.067-.227.166-.424.298-.59.132-.167.296-.299.492-.396.197-.096.423-.145.68-.145zm54.645 0c.195 0 .375.026.54.076.164.051.306.127.424.228s.21.228.276.38c.065.152.098.329.098.531v1.81c0 .064.003.13.007.2.005.068.012.135.022.2l.017.094.02.09c.013.059.029.11.047.154v.041h-.436c-.023-.064-.04-.143-.053-.236-.013-.093-.021-.188-.026-.285-.061.08-.134.157-.218.228-.084.071-.178.133-.282.186-.105.053-.22.096-.344.128-.125.032-.26.048-.406.048-.18 0-.342-.026-.489-.08-.146-.052-.271-.126-.375-.222-.103-.095-.183-.207-.24-.336-.056-.13-.085-.27-.085-.421 0-.182.039-.346.116-.492.077-.146.188-.27.334-.373.145-.102.322-.18.53-.235.207-.054.44-.08.7-.08h.756v-.425c0-.267-.081-.477-.244-.63-.162-.153-.399-.23-.71-.23-.143 0-.275.02-.395.059-.12.039-.224.093-.312.162-.087.069-.155.149-.204.24-.049.09-.073.188-.073.292l-.41-.004c0-.14.035-.276.103-.407.068-.131.164-.248.288-.35.124-.103.272-.185.446-.247.174-.063.366-.094.578-.094zm-47.572 0c.214 0 .405.029.574.085.17.056.312.135.43.235.116.1.205.218.267.354.061.135.092.283.092.441h-.41c0-.096-.02-.19-.062-.283-.042-.092-.103-.173-.184-.243-.08-.07-.18-.127-.3-.17-.12-.045-.255-.067-.407-.067-.159 0-.295.02-.407.06-.112.038-.204.089-.276.151-.072.062-.124.132-.157.209-.033.077-.05.155-.05.233 0 .083.013.158.038.226s.074.131.145.19c.072.059.172.113.3.162.103.04.23.079.383.118l.12.029c.222.053.414.111.575.176.161.064.295.14.4.23.106.088.184.19.236.303.05.114.076.246.076.395 0 .155-.032.295-.095.423-.064.128-.155.237-.273.328-.118.091-.26.162-.429.212-.168.051-.355.076-.562.076-.234 0-.44-.03-.62-.091s-.33-.143-.453-.247c-.123-.104-.215-.223-.278-.357-.062-.135-.094-.275-.094-.42h.41c.008.148.046.27.112.368.066.098.147.176.245.235.098.058.206.1.325.126.12.025.237.038.353.038.154 0 .29-.019.409-.056.118-.036.217-.086.298-.148.08-.062.141-.133.182-.214.04-.08.061-.165.061-.252 0-.076-.013-.152-.039-.228-.026-.076-.075-.148-.146-.216-.072-.067-.172-.13-.3-.19-.103-.046-.23-.088-.381-.126l-.118-.027c-.205-.044-.387-.094-.547-.152-.16-.057-.295-.127-.405-.209-.11-.081-.194-.179-.25-.291-.058-.113-.086-.245-.086-.397 0-.138.03-.27.09-.394s.147-.232.26-.324c.112-.092.248-.165.408-.22.16-.054.34-.08.54-.08zm36.17 0c.195 0 .375.026.54.076.164.051.305.127.423.228s.21.228.276.38c.066.152.1.329.1.531v1.81c0 .064.001.13.006.2.004.068.012.135.022.2.01.064.022.126.036.184.013.059.03.11.047.154v.041h-.436c-.022-.064-.04-.143-.052-.236-.013-.093-.021-.188-.026-.285-.061.08-.134.157-.218.228-.084.071-.178.133-.283.186-.104.053-.219.096-.344.128-.125.032-.26.048-.405.048-.18 0-.343-.026-.49-.08-.146-.052-.27-.126-.374-.222-.103-.095-.183-.207-.24-.336-.057-.13-.085-.27-.085-.421 0-.182.038-.346.116-.492.077-.146.188-.27.334-.373.145-.102.321-.18.53-.235.207-.054.44-.08.7-.08h.756v-.425c0-.267-.082-.477-.244-.63-.162-.153-.4-.23-.71-.23-.143 0-.275.02-.395.059-.12.039-.225.093-.312.162-.088.069-.156.149-.205.24-.048.09-.073.188-.073.292l-.409-.004c0-.14.035-.276.103-.407.068-.131.164-.248.288-.35.123-.103.272-.185.446-.247.174-.063.366-.094.577-.094zm-31.782.07v2.398c0 .2.023.367.068.5.045.134.107.241.184.322.077.08.168.138.27.173.104.034.214.051.33.051.163 0 .307-.018.432-.055.125-.037.233-.088.324-.155.09-.067.166-.145.225-.235s.105-.189.14-.297v-2.703h.408v3.735h-.395l-.007-.473c-.116.17-.27.304-.461.4-.192.095-.43.142-.714.142-.182 0-.346-.026-.494-.077-.148-.052-.275-.134-.382-.247-.106-.113-.189-.258-.247-.437-.058-.178-.086-.395-.086-.65v-2.393h.405zm-20.958-.07c.234 0 .442.043.623.128.182.085.335.204.458.356.124.152.218.332.281.542.064.209.096.438.096.686v.252h-2.63v.08c0 .205.03.397.092.578.061.18.147.338.259.471.111.134.244.239.398.316.155.077.326.116.515.116.218 0 .41-.04.577-.121.167-.08.319-.21.455-.387l.255.197c-.06.09-.132.175-.212.255-.081.081-.175.151-.281.211-.107.06-.228.107-.362.142-.134.034-.283.051-.45.051-.24 0-.461-.045-.664-.136-.202-.09-.376-.217-.523-.38-.146-.162-.26-.355-.342-.578-.082-.223-.123-.468-.123-.735v-.149c0-.287.043-.548.128-.781.085-.234.2-.433.346-.598.145-.164.313-.291.502-.381.19-.09.39-.135.602-.135zm29.543 0c.195 0 .375.026.54.076.164.051.306.127.424.228s.21.228.276.38c.066.152.099.329.099.531v1.81c0 .064.002.13.007.2.004.068.011.135.022.2.01.064.022.126.035.184.014.059.03.11.048.154v.041h-.436c-.023-.064-.04-.143-.053-.236-.012-.093-.02-.188-.025-.285-.062.08-.134.157-.218.228-.084.071-.179.133-.283.186-.105.053-.22.096-.344.128-.125.032-.26.048-.406.048-.179 0-.342-.026-.488-.08-.147-.052-.272-.126-.375-.222-.104-.095-.184-.207-.24-.336-.057-.13-.086-.27-.086-.421 0-.182.04-.346.116-.492.078-.146.189-.27.334-.373.146-.102.322-.18.53-.235.208-.054.441-.08.7-.08h.756v-.425c0-.267-.08-.477-.243-.63-.163-.153-.4-.23-.71-.23-.144 0-.275.02-.396.059-.12.039-.224.093-.311.162-.088.069-.156.149-.205.24-.049.09-.073.188-.073.292l-.409-.004c0-.14.034-.276.102-.407.068-.131.164-.248.288-.35.124-.103.273-.185.446-.247.174-.063.367-.094.578-.094zm19.585 0c.214 0 .405.029.574.085.17.056.312.135.43.235.116.1.205.218.267.354.061.135.092.283.092.441h-.409c0-.096-.021-.19-.063-.283-.042-.092-.103-.173-.184-.243-.08-.07-.18-.127-.3-.17-.119-.045-.255-.067-.407-.067-.159 0-.295.02-.407.06-.112.038-.204.089-.276.151-.071.062-.124.132-.157.209-.033.077-.05.155-.05.233 0 .083.013.158.038.226s.074.131.145.19c.072.059.172.113.3.162.103.04.23.079.383.118l.12.029c.222.053.414.111.575.176.161.064.295.14.4.23.106.088.184.19.236.303.05.114.076.246.076.395 0 .155-.032.295-.095.423-.064.128-.155.237-.273.328-.118.091-.26.162-.429.212-.168.051-.355.076-.562.076-.234 0-.44-.03-.62-.091s-.33-.143-.453-.247c-.123-.104-.215-.223-.278-.357-.062-.135-.094-.275-.094-.42h.41c.008.148.046.27.112.368.066.098.147.176.245.235.098.058.206.1.325.126.12.025.237.038.353.038.154 0 .29-.019.409-.056.118-.036.217-.086.298-.148.08-.062.141-.133.182-.214.041-.08.061-.165.061-.252 0-.076-.013-.152-.039-.228-.026-.076-.075-.148-.146-.216-.072-.067-.172-.13-.3-.19-.103-.046-.23-.088-.381-.126l-.118-.027c-.205-.044-.387-.094-.547-.152-.16-.057-.295-.127-.405-.209-.11-.081-.194-.179-.25-.291-.057-.113-.086-.245-.086-.397 0-.138.03-.27.09-.394s.147-.232.26-.324c.112-.092.248-.165.408-.22.16-.054.34-.08.54-.08zm-5.355 0c.195 0 .375.026.54.076.164.051.306.127.424.228s.21.228.276.38c.066.152.099.329.099.531v1.81c0 .064.002.13.006.2.005.068.012.135.023.2.01.064.022.126.035.184.014.059.03.11.048.154v.041h-.436c-.023-.064-.04-.143-.053-.236-.012-.093-.02-.188-.025-.285-.062.08-.134.157-.218.228-.084.071-.179.133-.283.186-.105.053-.22.096-.344.128-.125.032-.26.048-.406.048-.18 0-.342-.026-.489-.08-.146-.052-.271-.126-.374-.222-.104-.095-.184-.207-.24-.336-.057-.13-.086-.27-.086-.421 0-.182.039-.346.116-.492.077-.146.189-.27.334-.373.145-.102.322-.18.53-.235.208-.054.441-.08.7-.08h.756v-.425c0-.267-.081-.477-.243-.63-.163-.153-.4-.23-.71-.23-.144 0-.276.02-.396.059-.12.039-.224.093-.312.162-.087.069-.155.149-.204.24-.049.09-.073.188-.073.292l-.41-.004c0-.14.035-.276.103-.407.068-.131.164-.248.288-.35.124-.103.273-.185.446-.247.174-.063.367-.094.578-.094zm-2.385-1.498v5.302h-.382l-.017-.497c-.122.177-.278.316-.468.416-.19.1-.417.15-.683.15-.218 0-.415-.046-.59-.14-.174-.093-.323-.223-.446-.39-.122-.166-.217-.366-.282-.598-.066-.233-.1-.49-.1-.77v-.073c0-.29.034-.551.1-.785.065-.234.16-.433.282-.599.123-.166.272-.293.448-.383.176-.09.374-.135.595-.135.261 0 .485.053.673.16.187.105.342.251.465.438V47.48h.405zm-28.303 1.498c.234 0 .442.043.623.128.182.085.335.204.459.356.123.152.217.332.28.542.064.209.096.438.096.686v.252h-2.63v.08c0 .205.03.397.092.578.061.18.148.338.259.471.111.134.244.239.399.316.154.077.325.116.514.116.218 0 .41-.04.577-.121.167-.08.319-.21.455-.387l.256.197c-.062.09-.133.175-.213.255-.08.081-.175.151-.281.211-.107.06-.227.107-.361.142-.134.034-.284.051-.45.051-.24 0-.462-.045-.664-.136-.203-.09-.377-.217-.523-.38-.147-.162-.26-.355-.343-.578-.081-.223-.122-.468-.122-.735v-.149c0-.287.042-.548.127-.781.086-.234.2-.433.346-.598.146-.164.313-.291.503-.381.19-.09.39-.135.601-.135zm-19.824-1.222l1.83 4.436 1.836-4.436h.559v5.026h-.42v-2.195l.035-2.237-1.847 4.432h-.323l-1.84-4.415.034 2.22v2.195h-.419v-5.026h.555zm32.742 1.222c.184 0 .349.026.494.076.146.051.269.132.37.242.1.11.178.253.232.426.053.174.08.384.08.63v2.43h-.406V50.35c0-.194-.02-.355-.061-.483-.041-.13-.099-.233-.174-.311-.075-.078-.166-.134-.274-.168-.108-.033-.228-.05-.36-.05-.145 0-.277.025-.395.075-.118.05-.222.115-.313.198s-.17.178-.235.285c-.066.107-.118.217-.157.33v2.557h-.405v-3.735h.388l.014.639c.063-.106.137-.202.22-.29.082-.087.175-.162.277-.224.102-.062.212-.11.33-.144.119-.033.244-.05.375-.05zm-22.307 0c.05 0 .101.005.153.014.053.01.091.02.116.031l-.01.377c-.086-.017-.178-.025-.276-.025-.139 0-.263.021-.375.063-.111.04-.21.099-.294.174-.086.075-.157.163-.215.266-.058.102-.104.215-.138.34v2.564h-.405v-3.735h.398l.007.594c.1-.205.236-.366.407-.485.172-.118.382-.178.632-.178zm53.073 0c.184 0 .349.026.494.076.146.051.269.132.37.242.101.11.178.253.232.426.053.174.08.384.08.63v2.43h-.406V50.35c0-.194-.02-.355-.061-.483-.04-.13-.099-.233-.174-.311-.075-.078-.166-.134-.274-.168-.108-.033-.228-.05-.36-.05-.145 0-.276.025-.395.075-.118.05-.222.115-.313.198-.09.083-.17.178-.235.285-.066.107-.118.217-.157.33v2.557h-.405v-3.735h.388l.014.639c.063-.106.137-.202.22-.29.082-.087.175-.162.277-.224.102-.062.213-.11.33-.144.119-.033.244-.05.375-.05zm3.833 0c.184 0 .349.026.494.076.145.051.268.132.37.242.1.11.178.253.231.426.054.174.08.384.08.63v2.43h-.405V50.35c0-.194-.02-.355-.061-.483-.041-.13-.1-.233-.174-.311-.075-.078-.167-.134-.274-.168-.108-.033-.228-.05-.36-.05-.145 0-.277.025-.395.075-.118.05-.223.115-.313.198-.091.083-.17.178-.236.285-.065.107-.118.217-.156.33v2.557h-.406v-3.735h.389l.013.639c.064-.106.137-.202.22-.29.083-.087.176-.162.278-.224.102-.062.212-.11.33-.144.118-.033.243-.05.375-.05zm-23.125.07v3.734h-.409v-3.735h.41zm2.443.29c-.189 0-.351.04-.487.118-.137.08-.25.189-.338.327-.088.138-.154.301-.197.49-.043.189-.065.391-.065.607v.073c0 .218.022.422.065.61.043.187.109.35.197.487.089.139.2.247.336.325.135.078.296.117.482.117.138 0 .264-.016.376-.05.113-.033.213-.08.3-.14.088-.06.164-.13.228-.214.065-.082.12-.172.166-.269v-1.753c-.041-.095-.091-.186-.15-.273-.06-.087-.132-.165-.218-.233-.087-.068-.187-.122-.3-.162-.114-.04-.245-.06-.395-.06zm13.753 1.59h-.699c-.209 0-.395.02-.56.058-.165.038-.304.092-.417.164-.114.07-.2.158-.261.26-.06.103-.09.218-.09.347 0 .101.019.196.058.285.038.088.093.166.165.231.071.066.158.117.26.155.103.038.217.057.344.057.148 0 .285-.019.411-.057.126-.038.24-.09.342-.157.103-.066.191-.144.266-.233.075-.088.135-.184.18-.288v-.821zm-8.967 0h-.698c-.21 0-.396.02-.56.058-.165.038-.304.092-.418.164-.113.07-.2.158-.26.26-.06.103-.09.218-.09.347 0 .101.018.196.057.285.039.088.094.166.165.231.072.066.159.117.26.155.103.038.218.057.345.057.148 0 .284-.019.41-.057.127-.038.24-.09.343-.157.102-.066.19-.144.266-.233.075-.088.135-.184.18-.288v-.821zm-14.23 0h-.698c-.209 0-.396.02-.56.058-.165.038-.304.092-.418.164-.113.07-.2.158-.26.26-.06.103-.09.218-.09.347 0 .101.019.196.057.285.039.088.094.166.165.231.072.066.159.117.261.155.102.038.217.057.344.057.148 0 .285-.019.41-.057.127-.038.24-.09.343-.157.102-.066.19-.144.266-.233.075-.088.135-.184.18-.288v-.821zm34.599 0h-.698c-.21 0-.396.02-.56.058-.165.038-.305.092-.418.164-.114.07-.2.158-.26.26-.06.103-.091.218-.091.347 0 .101.02.196.058.285.038.088.094.166.165.231.072.066.159.117.26.155.103.038.218.057.345.057.147 0 .284-.019.41-.057.126-.038.24-.09.343-.157.102-.066.19-.144.265-.233.05-.059.094-.121.13-.187l.051-.1v-.822zm-59.188-1.598c-.155 0-.298.03-.43.09-.131.06-.248.145-.349.256-.1.11-.184.243-.249.398-.064.156-.108.328-.13.516h2.21v-.044c-.004-.157-.03-.308-.075-.454-.045-.147-.112-.276-.199-.389-.087-.112-.196-.203-.325-.27-.13-.069-.28-.103-.453-.103zm-5.887 0c-.155 0-.298.03-.43.09-.131.06-.248.145-.349.256-.1.11-.184.243-.248.398-.065.156-.109.328-.132.516h2.211v-.044c-.004-.157-.03-.308-.075-.454-.045-.147-.111-.276-.199-.389-.087-.112-.196-.203-.325-.27-.13-.069-.28-.103-.453-.103zm13.085 0c-.154 0-.298.03-.43.09-.131.06-.247.145-.348.256-.102.11-.184.243-.25.398-.064.156-.108.328-.13.516h2.21v-.044c-.004-.157-.029-.308-.074-.454-.046-.147-.112-.276-.2-.389-.087-.112-.195-.203-.325-.27-.13-.069-.28-.103-.453-.103zm24.191-1.643c.086 0 .155.027.206.082.051.054.077.12.077.198 0 .078-.026.144-.077.197-.05.053-.12.08-.206.08s-.154-.027-.204-.08c-.05-.053-.075-.119-.075-.197 0-.078.025-.144.075-.198.05-.055.118-.082.204-.082zm-36.137-18.655c.386.267.435.5.173.886-.35.51-.694 1.02-1.047 1.526-.06.123-.17.214-.302.246-.132.032-.27.003-.38-.08-.433-.211-.825-.494-1.273-.682-.718-.343-1.503-.515-2.295-.503l-.238.009c-.545.002-1.055.275-1.363.73-.296.535-.155 1.21.331 1.576.53.33 1.112.565 1.72.699 1.073.256 2.124.596 3.144 1.018.644.279 1.219.698 1.684 1.228.521.654.801 1.472.791 2.313.086 1.158-.288 2.303-1.038 3.18-.678.736-1.563 1.241-2.534 1.449-.678.157-1.373.23-2.069.215-1.985-.039-3.905-.727-5.472-1.962-.374-.29-.404-.543-.105-.914.378-.468.76-.932 1.148-1.39.084-.138.226-.228.384-.245.159-.016.316.043.426.16.962.78 2.12 1.271 3.344 1.419.64.099 1.296.026 1.9-.212.45-.164.764-.578.805-1.06.063-.508-.197-.996-.64-1.223l-.099-.044c-.532-.255-1.085-.46-1.653-.615l-.343-.087c-.828-.197-1.64-.456-2.431-.774l-.394-.164c-1.39-.563-2.292-1.937-2.267-3.454-.098-1.334.434-2.637 1.434-3.51.829-.701 1.851-1.122 2.924-1.207l.215-.012c1.954-.16 3.902.364 5.52 1.484zm61.95-.942l.945 2.254 2.744 6.52c.702 1.668 1.402 3.337 2.1 5.008.156.372.069.537-.292.56l-.081.002h-1.116l-.716-.005-.179.002-.179.007c-.346.038-.67-.177-.773-.514l-.791-1.989-.204-.5c-.024-.09-.085-.163-.168-.203-.082-.04-.177-.04-.26-.004-.977.256-1.984.37-2.99.337l-.336-.016c-.626-.019-1.25-.101-1.859-.246l-.304-.078c-.328-.094-.409-.058-.538.26-.319.792-.636 1.584-.95 2.378-.09.35-.404.585-.753.577l-.08-.006h-2.03c-.477-.001-.593-.173-.407-.613l1.172-2.771c.696-1.644 1.39-3.29 2.081-4.94.74-1.771 1.483-3.543 2.227-5.314l.304-.737c.11-.318.4-.53.726-.54l.09.002c.583.013 1.166.013 1.75 0 .384-.037.743.199.867.57zm-51.884-.566l1.003.005c.321 0 .607.21.706.52l1.43 3.407 2.464 5.847c.643 1.53 1.285 3.062 1.926 4.595.137.326.044.505-.27.53l-.078.004h-1.166l-.715-.005-.179.002-.178.006c-.347.035-.67-.182-.773-.518-.323-.808-.641-1.618-.96-2.428-.097-.248-.186-.318-.41-.272l-.073.017c-1.238.312-2.52.406-3.79.279-.458-.037-.913-.106-1.361-.21l-.463-.114c-.204-.043-.253.002-.36.256l-.313.761-.612 1.527c-.039.096-.075.192-.122.283-.103.232-.32.388-.565.413l-.083.004h-2.216c-.385-.001-.501-.178-.35-.542l4.261-10.144 1.39-3.29.151-.362c.026-.06.053-.12.083-.177.112-.243.355-.396.62-.39l1.003-.004zm20.393.004l1.073-.003 1.073.003c.147-.012.29.042.393.15.102.107.15.254.133.402.004 2.301.004 4.602 0 6.902l.005-.006v6.807c0 .482-.163.644-.647.644l-1.042-.004-.52.004c-.348.018-.68-.147-.878-.437-.678-.909-1.352-1.819-2.033-2.724-1.084-1.44-2.17-2.878-3.258-4.312l-1.182-1.575-.048-.067c-.04-.054-.085-.097-.167-.07-.114.036-.092.15-.092.241v8.39c.023.152-.026.306-.133.414-.106.11-.257.16-.407.139-.697.005-1.397.005-2.1 0-.377 0-.532-.163-.551-.544-.006-.118-.009-.236-.009-.353V28.128c0-.04.002-.079.006-.118.005-.265.22-.478.482-.478.722-.008 1.446-.005 2.169.008.252.018.481.155.619.37l2.401 3.182c1.298 1.728 2.594 3.458 3.887 5.189l.051.073c.045.06.097.11.183.076.107-.041.073-.161.073-.252v-7.966c-.015-.125 0-.253.04-.372.08-.195.27-.32.48-.312zm8.717 0c.275.005.532.13.706.341l2.232 2.98 4.056 5.405.105.128c.031.047.089.069.143.054.065-.02.074-.07.076-.13l.005-.283v-7.847c0-.473.16-.645.628-.648.668-.004 1.338 0 2.006 0 .153-.021.308.031.418.142.11.112.161.268.14.424.006.914 0 1.828 0 2.741v10.903l-.004.2c.006.133-.044.262-.137.354-.075.074-.171.12-.274.13l-.077.001c-.614.01-1.23.006-1.843 0-.338-.026-.642-.22-.812-.517-1.176-1.568-2.354-3.134-3.535-4.698-.947-1.26-1.892-2.522-2.835-3.785-.033-.044-.07-.085-.106-.126-.035-.04-.092-.089-.161-.056-.046.024-.075.07-.08.12l.005.25v7.965c0 .744-.064.841-.745.848h-1.916c-.146.017-.29-.033-.396-.136-.105-.104-.159-.25-.146-.397l-.003-.13V28.255c0-.079 0-.158.003-.236 0-.132.054-.258.147-.35.092-.092.218-.143.347-.14.684-.01 1.369-.007 2.053 0zm21 4.13c-.062.006-.09.047-.11.095l-.029.073c-.564 1.387-1.126 2.775-1.684 4.163-.094.231-.063.3.175.388.472.153.966.224 1.461.212.528.026 1.055-.022 1.57-.14l.255-.066c.238-.077.291-.141.215-.35l-1.698-4.226c-.029-.073-.06-.157-.154-.149zm-50.136-.001c-.143-.008-.145.143-.183.238l-1.086 2.689c-.182.447-.366.894-.552 1.34-.106.263-.08.4.243.492.527.132 1.07.191 1.613.176.46.014.919-.037 1.364-.15l.221-.062c.255-.089.295-.174.2-.421l-.273-.676c-.452-1.127-.909-2.252-1.369-3.376-.039-.095-.035-.243-.178-.25zM152.86 52.21l1.12-3.164h.42l-1.376 3.735h-.33l-1.384-3.735h.419l1.13 3.164z"/>
        <path d="M0 0H250V70H0z"/>
    </g>
</svg>
