<svg xmlns="http://www.w3.org/2000/svg" width="81" height="84" viewBox="0 0 81 84">
    <path fill="#FFF" fill-rule="evenodd" d="M29.022.046c3.42.292 5.951 2.044 7.509 5.022l.143.283c.355.726.714 1.045 1.455 1.008l.154-.013c.713-.076 1.442-.034 2.164-.006 1.42.054 2.537.91 2.743 2.276l.021.174c.101 1.11.707 1.275 1.604 1.31 1.731.068 3.516-.058 5.18.322 3.751.858 6.251 4.215 6.265 8.052.008 2.274-.017 4.549-.055 6.823-.005.306-.134.63-.28.907-.113.213-.344.366-.523.546l-5.769 5.803v-5.507c0-2.57.004-5.14 0-7.71-.004-2.059-.577-2.638-2.629-2.638l-18.727-.002H9.549c-2.329 0-2.81.402-2.836 2.585l-.002 53.035-.006 1.938c0 .323.004.646.012.97.034 1.394.7 2.05 2.122 2.134.212.013.425.004.637.004l37.329-.004c2.252 0 2.826-.587 2.827-2.864l.008-6.825c0-2.275-.004-4.55-.024-6.824-.008-.878.271-1.49.897-2.093 1.853-1.784 3.648-3.628 5.736-5.718v13.375l.015 6.063c0 1.01 0 2.021-.005 3.032-.024 4.65-3.63 8.423-8.34 8.447-13.164.067-26.328.063-39.493 0C3.593 83.926.022 80.113.012 75.15-.012 64.32.008 53.493.009 42.665c0-7.88 0-15.758-.005-23.637-.001-3.533 1.402-6.317 4.6-7.974 1.051-.544 2.32-.757 3.517-.92 1.126-.153 2.289-.063 3.434-.04.846.016 1.336-.266 1.53-1.09l.034-.162c.296-1.677 1.218-2.435 2.881-2.507l.203-.005c.043 0 .086-.003.128.002 1.712.21 2.858-.124 3.855-1.804l.114-.2c1.798-3.252 4.99-4.601 8.722-4.282zM16.736 67.114l6.034-6.334.61.528c1.385 1.22 1.264 1.442-.191 3.035l-6.532 7.126-5.053-5.842 2.188-1.874 2.944 3.361zm13.767-2.078l5.175-15.2 10.069 10.08-15.244 5.12zm7.98-17.713l23.51-23.351 9.735 10.146L48.422 57.23l-9.939-9.906zm-21.745.832l5.998-6.408 2.126 1.947-8.223 8.804-5.044-5.849 2.196-1.855 2.947 3.361zm-.054-19.04l6.1-6.383 2.078 1.924-8.214 8.796-5.036-5.82 2.154-1.895 2.918 3.378zm58.768-12.893c1.463 1.4 2.904 2.823 4.316 4.274 1.556 1.6 1.676 4.058.144 5.721-1.65 1.793-3.457 3.446-5.186 5.15l-10.27-10.181c1.77-1.776 3.46-3.661 5.354-5.313 1.677-1.463 4.002-1.221 5.642.349zM28.14 3.439c-1.897-.014-3.544 1.671-3.505 3.586.039 1.866 1.662 3.426 3.544 3.409 1.917-.017 3.615-1.727 3.548-3.572-.066-1.832-1.72-3.41-3.587-3.423z"/>
</svg>
