<svg xmlns="http://www.w3.org/2000/svg" width="65" height="83" viewBox="0 0 65 83">
    <path fill="#FFF" fill-rule="evenodd" d="M36.685 0h23.823c2.414 0 4.383 1.926 4.488 4.341l.004.202v73.914c0 2.441-1.904 4.433-4.292 4.539l-.2.004H4.492C2.078 83 .11 81.075.004 78.659L0 78.457V17.793c0-2.442 1.904-4.434 4.292-4.54l.2-.004h16.026c1.164 0 2.28-.457 3.115-1.27l.163-.167 9.61-10.375c.797-.86 1.89-1.37 3.047-1.43L36.685 0h23.823-23.823zM32.5 28.705c-10.078 0-18.249 8.264-18.249 18.458 0 10.194 8.17 18.458 18.249 18.458 10.079 0 18.249-8.264 18.249-18.458 0-10.194-8.17-18.458-18.249-18.458zm3.3 8.595v6.525h6.452V50.5H35.8v6.525h-6.6v-6.525h-6.452v-6.676H29.2V37.3h6.6z"/>
</svg>
