<svg xmlns="http://www.w3.org/2000/svg" width="78" height="77" viewBox="0 0 78 77">
    <path fill="#FFF" fill-rule="evenodd" d="M5.97 43.43L45.45 5.378c7.578-7.303 19.505-7.133 26.878.294l.353.365c7.223 7.662 7.055 19.722-.291 27.176l-.361.357-39.48 38.052c-7.578 7.303-19.505 7.133-26.877-.294l-.353-.365-.344-.374c-6.871-7.675-6.592-19.468.635-26.802l.36-.357L45.45 5.378 5.97 43.43zm27.367-19.398L9.712 46.802c-5.973 5.757-6.2 15.32-.505 21.361 5.59 5.93 14.81 6.259 20.796.82l.33-.309 23.21-22.37-20.206-22.272z"/>
</svg>
