<svg xmlns="http://www.w3.org/2000/svg" width="105" height="78" viewBox="0 0 105 78">
    <path fill="#FFF" fill-rule="evenodd" d="M84.411 47.226h10.641V34.793h-10.64v12.433zm0 19.13h10.641V53.923h-10.64v12.433zm-23.13-19.13h10.64V34.793h-10.64v12.433zm0 19.13h10.64V53.923h-10.64v12.433zm-3.453 6.588H47.193c0-2.207-.007-4.4-.01-6.588h-.1V53.924h10.64s.02 4.417.094 8.063c.072 3.58.011 7.163.011 10.957zM47.083 47.226h10.64V34.793h-10.64v12.433zm-3.364-33.018h5.93V8.322h5.703v5.886h5.929v5.663h-5.93v5.886h-5.703v-5.886H43.72v-5.663zM33.075 47.226h10.642V34.793H33.075v12.433zm0 19.13h10.642V53.923H33.075v12.433zM9.82 47.226h10.64V34.793H9.82v12.433zm0 19.13h10.64V53.923H9.82v12.433zm89.965 6.663V55.57c0-9.167-.019-18.333.007-27.499.009-2.692-.793-5.12-3.74-5.286-5.35-.301-10.727-.086-16.323-.086v50.108c-2.778.977-2.478-.813-2.479-2.282-.003-21.572.002-43.145-.006-64.718-.002-4.418-1.38-5.79-5.849-5.795-12.59-.016-25.179-.019-37.768.002-4.488.007-5.866 1.38-5.869 5.775-.011 13.795-.004 27.59-.004 41.386 0 7.87-.011 15.74.008 23.61.003 1.553-.046 2.93-2.593 1.963V22.547c-4.708 0-9.075-.006-13.442 0-5.15.01-6.502 1.316-6.507 6.363-.01 13.61-.004 27.22-.004 40.83v3.278L0 73.293V78h105v-4.731l-5.215-.25z"/>
</svg>
