<svg xmlns="http://www.w3.org/2000/svg" width="50" height="50" viewBox="0 0 50 50">
    <g fill="none" fill-rule="evenodd">
        <path d="M0 0H50V50H0z"/>
        <path fill="#01A851" d="M8.967 18.88c.721.111 1.348.837 1.414 1.644.013.16.006.32.006.48v13.709H42v8.278h-3.362v-4.787H10.383V43H7v-7.745c0-4.798.002-9.597.006-14.395 0-.296.025-.612.127-.885.297-.797 1.036-1.218 1.834-1.095zm12.53 4.959l.582.07c3.042.387 13.752 1.902 16.95 2.283l.48.054c1.59.17 2.45 1.14 2.49 2.729l.001.114v3.748l-.396.02c-.059.003-.115.005-.172.005h-28.33c-.931 0-1.561-.356-1.741-1.14-.264-1.15-.16-2.07.533-2.607.287-.222.486-.284.786.043 1.049 1.14 2.345 1.466 3.83 1.084.945-.243 1.897-.462 2.936-.714v-3.1-.787c.002-1.334.73-1.949 2.05-1.802zm-6-.488c1.743.007 3.153 1.429 3.142 3.168-.011 1.733-1.44 3.132-3.19 3.124-1.717-.008-3.075-1.414-3.064-3.173.01-1.766 1.368-3.126 3.112-3.12zM29.407 7c3.329-.015 6.071 2.73 6.09 6.095.017 3.433-2.658 6.21-6.003 6.23-3.396.02-6.138-2.718-6.154-6.142-.014-3.391 2.711-6.17 6.067-6.184zm-.009 1.369c-2.601.007-4.697 2.17-4.686 4.834.01 2.613 2.13 4.759 4.706 4.766 2.598.007 4.723-2.163 4.716-4.815-.008-2.66-2.12-4.793-4.736-4.785zm.011 1.565c.404-.008.533.261.53.634l-.002.939.001 1.313h1.908c.158 0 .356-.056.464.019.19.132.447.345.448.526 0 .17-.286.484-.456.49-1.115.045-2.231.023-3.408.023v-2.405c0-.311 0-.62.002-.93.001-.343.143-.603.513-.61z"/>
    </g>
</svg>
