<svg xmlns="http://www.w3.org/2000/svg" width="50" height="50" viewBox="0 0 50 50">
    <g fill="none" fill-rule="evenodd">
        <path d="M0 0H50V50H0z"/>
        <path fill="#01A851" d="M20.02 5.164c1.417.467 2.076 1.51 2.193 3.538l.825-.217.405-.11c.464-.128.922-.275 1.39-.39.991-.24 1.835.228 2.146 1.178l.232.738c1.067-.302 2.094-.619 3.135-.877l.273-.067c.46-.11.939-.204 1.386-.149 1.035.127 1.78.744 2.08 1.739 1.243 4.116 2.46 8.24 3.684 12.36.008.028-.008.062-.02.139-.882-.484-1.757-.603-2.614.099l-1.923-6.454c-.371-1.248-.736-2.498-1.11-3.746-.306-1.018-1.105-1.445-2.161-1.158-.653.178-1.303.366-1.942.545l-.013.196c-.076.932-.318 1.196-1.267 1.477l-10.526 2.987-.185.05c-.86.212-1.224.04-1.787-.8-.781.24-1.605.437-2.38.75-.725.293-1.013 1.068-.782 1.854 1.044 3.545 2.092 7.088 3.143 10.631 1.024 3.45 2.054 6.896 3.081 10.344.33 1.108 1.112 1.526 2.258 1.202l8.85-2.508.095-.025c.082-.02.176-.039.306-.069l-.32.67c-.31.664-.55 1.321-.37 2.094l-2.826.799-.697.198-5.884 1.678c-1.644.467-3-.257-3.48-1.871-2.362-7.946-4.722-15.893-7.08-23.84-.462-1.56.281-2.872 1.878-3.34l.984-.285 2.534-.728-.144-.56-.035-.13c-.29-1.053.171-1.884 1.235-2.205.679-.205 1.362-.398 2.078-.606-1.067-1.395-1.2-2.804-.086-4.19.797-.99 2.213-1.345 3.44-.941zM36.908 23.4c1.493.676 2.978 1.369 4.454 2.078.482.232.714.768.614 1.233-.108.507-.514.9-1.043.939l-.077.003c-.427.004-.608.217-.772.556-2.154 4.455-4.324 8.902-6.472 13.359-.464.962-1.19 1.494-2.2 1.566-1.999-.09-3.28-1.829-2.406-3.608 2.177-4.426 4.312-8.87 6.476-13.302.193-.394.268-.712-.002-1.09l-.052-.067c-.317-.392-.219-.981.116-1.356.336-.376.878-.53 1.364-.31zm-2.49 8.094c-.075.097-.17.184-.222.292-1.348 2.77-2.693 5.541-4.029 8.317-.05.104 0 .254.004.383.105-.08.258-.137.31-.242 1.35-2.768 2.69-5.541 4.026-8.317.054-.113.032-.261.045-.393l-.134-.04zm5.545-1.223c.472 1.617.996 3.222 1.398 4.856.281 1.143-.533 2.343-1.716 2.763-.14.05-.283.093-.426.134l-3.64 1.026.819-1.68c.2-.408.398-.808.601-1.207.054-.106.232-.162.364-.217.808-.34 1.167-1.023 1.026-1.85l-.018-.092c-.056-.264-.04-.589.069-.831.353-.783.738-1.553 1.12-2.323l.284-.579h.12zM20.56 31.705c1.237.008 2.233.998 2.234 2.218 0 1.23-.98 2.202-2.233 2.211-1.243.009-2.256-.97-2.262-2.186-.007-1.245 1.009-2.253 2.26-2.243zm12.758-2.597l-.694 1.438c-.223.46-.442.906-.665 1.35-.047.091-.21.145-.331.18-1.879.544-3.757 1.089-5.64 1.617-.814.229-1.482-.119-1.702-.847-.218-.717.161-1.349.989-1.587 2.404-.693 4.812-1.376 7.22-2.054.218-.061.455-.056.823-.097zm2.9-4.736c.083.136.13.324.251.398l.175.108c.39.247.37.309.111.839-.453.93-.903 1.86-1.357 2.79l-.686 1.39c-.18.365-.156.603.218.78l.062.027c.465.192.917.413 1.372.628l.342.16c.566.26.63.254.877-.243l1.017-2.088 1.075-2.21c.236-.471.298-.444.942-.257.13.038.3-.05.451-.08l.007-.166c-.093-.08-.173-.186-.28-.236-1.364-.64-2.728-1.278-4.102-1.896-.123-.055-.314.034-.474.056zm-17.571.874c1.231.013 2.24 1.014 2.24 2.223 0 1.206-1.016 2.205-2.248 2.212-1.26.007-2.261-.99-2.252-2.243.01-1.216 1.03-2.206 2.26-2.192zm12.23-2.566c.74-.011 1.296.438 1.404 1.054.107.607-.244 1.208-.888 1.403-1.313.4-2.636.77-3.957 1.147-1.098.313-2.196.624-3.297.93-.883.246-1.554-.075-1.784-.843-.21-.7.214-1.347 1.068-1.591 2.37-.678 4.743-1.348 7.116-2.02l.12-.031c.097-.024.182-.04.218-.05zm-14.02-3.453c1.259.009 2.237.982 2.23 2.218-.008 1.21-1.042 2.209-2.275 2.197-1.233-.012-2.227-1.015-2.222-2.24.006-1.238.99-2.183 2.267-2.175zm12.24-2.544c.75-.006 1.29.422 1.387 1.012.106.641-.26 1.218-.945 1.42-1.398.41-2.803.8-4.205 1.198-.988.281-1.975.564-2.964.843-.902.254-1.559-.04-1.797-.801-.222-.709.198-1.339 1.069-1.586 2.342-.667 4.685-1.33 7.028-1.991.174-.05.354-.08.426-.095zM17.327 7.245c-.417.77-.237 1.7.423 2.267.277.238.553.353.913.24l.079-.027c.383-.15.79-.244 1.189-.358.731-.21.961-.502.967-1.243.007-.83-.6-1.608-1.41-1.803-.875-.212-1.747.16-2.16.924z"/>
    </g>
</svg>
