<svg xmlns="http://www.w3.org/2000/svg" width="70" height="70" viewBox="0 0 70 70">
    <g fill="none" fill-rule="evenodd">
        <g>
            <g>
                <path d="M0 0H70V70H0z" transform="translate(-33 -823) translate(33 823)"/>
                <path fill="#01A851" d="M47.927 16c1.114 0 2.023.882 2.071 1.987l.002.093v33.84c0 1.118-.879 2.03-1.98 2.078l-.093.002H22.073c-1.114 0-2.023-.882-2.071-1.987L20 51.92V24.146c0-1.118.879-2.03 1.981-2.078l.092-.002h7.397c.537 0 1.052-.21 1.438-.581l.075-.077 4.435-4.75c.368-.394.872-.628 1.406-.655l.107-.003h10.996zM35 29.142c-4.652 0-8.422 3.784-8.422 8.45 0 4.668 3.77 8.451 8.422 8.451 4.652 0 8.423-3.783 8.423-8.45s-3.771-8.45-8.423-8.45zm3.182 5.176l2.121 2.121-6.364 6.364-4.242-4.242 2.121-2.122 2.121 2.122 4.243-4.243z" transform="translate(-33 -823) translate(33 823)"/>
            </g>
        </g>
    </g>
</svg>
